<?xml version="1.0" encoding="utf-8"?>
<svg width="28px" height="28px" viewBox="0 0 28 28" version="1.1" xmlns:xlink="http://www.w3.org/1999/xlink" xmlns="http://www.w3.org/2000/svg">
  <desc>Created with Lunacy</desc>
  <defs>
    <path d="M17.0653 0.000127757C12.9808 0.00359523 9.269 2.3754 7.54974 6.08044C5.83048 9.78548 6.41584 14.1513 9.05034 17.2726L7.72034 18.6026L7.44034 18.3226C6.98264 17.8937 6.27055 17.8937 5.81284 18.3226L0.335344 23.5726C-0.111781 24.023 -0.111781 24.7498 0.335344 25.2001L2.20784 27.0726C2.42571 27.2902 2.72248 27.4102 3.03034 27.4051L3.06534 27.4051C3.37578 27.4056 3.67292 27.2791 3.88784 27.0551L9.26034 21.6301C9.47793 21.4123 9.5979 21.1155 9.59284 20.8076C9.6243 20.5644 9.53241 20.3216 9.34784 20.1601L8.98034 19.7926L10.2928 18.4801C13.8326 21.5071 18.9434 21.8405 22.8464 19.299C26.7495 16.7575 28.5118 11.9486 27.1753 7.48694C25.8388 3.02528 21.7228 -0.022736 17.0653 0.000127757ZM17.0653 18.3751C12.7161 18.3751 9.19034 14.8494 9.19034 10.5001C9.19034 6.15088 12.7161 2.62513 17.0653 2.62513C21.4146 2.62513 24.9403 6.15088 24.9403 10.5001C24.9403 12.5887 24.1107 14.5917 22.6338 16.0686C21.157 17.5454 19.1539 18.3751 17.0653 18.3751Z" transform="translate(0.434656 -0.0001277574)" id="path_1" />
    <clipPath id="mask_1">
      <use xlink:href="#path_1" />
    </clipPath>
  </defs>
  <g id="icon/navigation/arrow_forward_24px">
    <g id="icon">
      <path d="M17.0653 0.000127757C12.9808 0.00359523 9.269 2.3754 7.54974 6.08044C5.83048 9.78548 6.41584 14.1513 9.05034 17.2726L7.72034 18.6026L7.44034 18.3226C6.98264 17.8937 6.27055 17.8937 5.81284 18.3226L0.335344 23.5726C-0.111781 24.023 -0.111781 24.7498 0.335344 25.2001L2.20784 27.0726C2.42571 27.2902 2.72248 27.4102 3.03034 27.4051L3.06534 27.4051C3.37578 27.4056 3.67292 27.2791 3.88784 27.0551L9.26034 21.6301C9.47793 21.4123 9.5979 21.1155 9.59284 20.8076C9.6243 20.5644 9.53241 20.3216 9.34784 20.1601L8.98034 19.7926L10.2928 18.4801C13.8326 21.5071 18.9434 21.8405 22.8464 19.299C26.7495 16.7575 28.5118 11.9486 27.1753 7.48694C25.8388 3.02528 21.7228 -0.022736 17.0653 0.000127757ZM17.0653 18.3751C12.7161 18.3751 9.19034 14.8494 9.19034 10.5001C9.19034 6.15088 12.7161 2.62513 17.0653 2.62513C21.4146 2.62513 24.9403 6.15088 24.9403 10.5001C24.9403 12.5887 24.1107 14.5917 22.6338 16.0686C21.157 17.5454 19.1539 18.3751 17.0653 18.3751Z" transform="translate(0.434656 -0.0001277574)" id="Mask" fill="#2C3E53" stroke="none" />
      <g clip-path="url(#mask_1)">
        <g id="↳-🌈-color">
          <path d="M0 0L28 0L28 28L0 28L0 0Z" id="color" fill="#3B4454" stroke="none" />
        </g>
      </g>
    </g>
  </g>
</svg>